<?xml version="1.0" standalone="no"?>
<!DOCTYPE svg PUBLIC "-//W3C//DTD SVG 20010904//EN"
 "http://www.w3.org/TR/2001/REC-SVG-20010904/DTD/svg10.dtd">
<svg style="background:#24e4f2" version="1.0" xmlns="http://www.w3.org/2000/svg"
 width="2000.000000pt" height="1000.000000pt" viewBox="0 0 2000.000000 1000.000000"
 preserveAspectRatio="xMidYMid meet">

<g transform="translate(0.000000,1000.000000) scale(0.100000,-0.100000)"
fill="#000000" stroke="none">
<path d="M0 5000 l0 -5000 10000 0 10000 0 0 5000 0 5000 -10000 0 -10000 0 0
-5000z m10900 3666 c849 -56 1698 -190 2425 -382 1392 -369 2471 -928 3160
-1635 438 -450 684 -914 750 -1412 52 -399 -18 -776 -218 -1172 -138 -272
-303 -492 -571 -761 -650 -649 -1603 -1158 -2846 -1519 -866 -251 -1709 -392
-2800 -467 -251 -17 -1298 -17 -1570 0 -1390 87 -2554 321 -3610 727 -358 138
-835 365 -1105 525 -1034 614 -1637 1365 -1751 2177 -24 173 -15 466 19 623
101 464 335 873 732 1279 567 580 1401 1064 2446 1419 1027 349 2125 546 3414
612 261 13 1250 4 1525 -14z"/>
<path d="M10020 8514 c-145 -13 -315 -49 -435 -94 -390 -144 -757 -462 -1058
-915 l-79 -120 842 -3 c463 -1 1217 -1 1675 0 l834 3 -87 130 c-368 550 -799
874 -1297 974 -98 20 -305 33 -395 25z"/>
<path d="M9260 8473 c-14 -2 -90 -13 -170 -24 -815 -113 -1605 -392 -2245
-793 -123 -77 -385 -262 -385 -272 0 -2 402 -4 893 -4 l892 0 90 146 c239 387
522 682 845 879 85 52 123 78 110 74 -3 -1 -16 -4 -30 -6z"/>
<path d="M11084 8395 c312 -196 603 -503 844 -892 l76 -123 829 0 830 0 -65
49 c-115 87 -409 277 -553 357 -544 303 -1194 525 -1865 639 -81 14 -156 25
-165 25 -10 0 21 -25 69 -55z"/>
<path d="M7735 8334 c-871 -149 -1698 -386 -2380 -684 -143 -62 -442 -206
-505 -243 l-45 -27 685 0 685 0 90 75 c416 347 1018 676 1612 880 54 18 89 34
78 34 -11 0 -110 -16 -220 -35z"/>
<path d="M12395 8276 c544 -206 1074 -506 1462 -828 l82 -68 628 2 628 3 -120
62 c-524 268 -1245 531 -1914 698 -268 67 -843 186 -895 185 -6 0 52 -24 129
-54z"/>
<path d="M4335 7102 c-997 -666 -1483 -1448 -1406 -2262 64 -671 474 -1284
1222 -1827 l94 -68 773 -3 c426 -1 780 1 788 6 10 6 -10 35 -79 119 -113 135
-233 303 -315 439 -55 92 -182 335 -182 348 0 3 42 6 93 6 l93 0 42 -86 c120
-242 316 -518 524 -737 l83 -87 1003 -3 c663 -1 1002 1 1002 8 0 6 -20 59 -45
118 -60 146 -147 414 -195 607 -22 88 -40 164 -40 170 0 6 33 10 88 10 l87 0
39 -157 c60 -242 194 -626 253 -724 l18 -30 1850 1 c1017 0 1852 4 1856 8 14
14 116 268 157 387 47 137 101 323 128 438 l18 77 88 0 c86 0 88 0 83 -22 -2
-13 -12 -54 -20 -92 -39 -175 -146 -508 -223 -698 -22 -53 -38 -99 -35 -102 3
-3 422 -6 932 -6 l926 0 85 88 c212 218 410 493 539 750 l41 82 90 0 c54 0 90
-4 90 -10 0 -19 -109 -228 -180 -346 -90 -149 -198 -300 -316 -440 -52 -62
-94 -113 -94 -115 0 -2 331 -3 736 -1 l735 3 72 51 c199 144 476 385 602 524
538 596 733 1191 604 1839 -91 452 -385 922 -826 1317 -177 159 -408 333 -598
453 l-90 56 -678 -2 c-372 -1 -679 -4 -681 -8 -3 -4 37 -52 87 -107 179 -193
349 -421 475 -636 l52 -88 -98 0 -97 1 -93 142 c-127 195 -248 344 -431 530
l-156 158 -897 2 c-494 1 -898 -1 -898 -4 0 -4 16 -42 36 -85 80 -175 184
-463 242 -672 l21 -73 -91 3 -91 3 -32 111 c-60 203 -138 409 -225 592 l-61
127 -1787 -2 -1787 -2 -42 -88 c-95 -197 -220 -532 -263 -700 l-11 -43 -89 0
c-50 0 -90 2 -90 4 0 10 54 192 87 291 41 126 113 311 172 442 23 50 41 92 41
94 0 2 -433 3 -962 3 l-963 -2 -150 -148 c-174 -173 -318 -347 -447 -545 l-92
-139 -94 0 c-78 0 -93 2 -89 14 13 32 134 226 198 318 91 128 228 295 334 406
47 49 85 92 85 96 0 3 -336 5 -747 5 l-748 -1 -130 -86z m815 -1832 l0 -570
668 -2 667 -3 -2 -120 -2 -120 -825 -3 -826 -2 0 695 0 695 160 0 160 0 0
-570z m1872 58 c3 -492 4 -514 23 -547 11 -19 33 -43 48 -55 28 -21 37 -21
568 -24 519 -2 540 -2 577 17 80 41 76 12 82 596 l5 520 163 3 162 2 0 -553
c0 -490 -2 -559 -17 -603 -41 -123 -123 -196 -251 -223 -82 -17 -1361 -15
-1427 3 -130 34 -212 112 -244 231 -6 26 -11 233 -11 585 -1 300 -1 548 0 553
0 4 72 7 160 7 l159 0 3 -512z m2517 1 c206 -280 378 -512 382 -514 6 -4 116
142 614 821 l149 204 143 0 143 0 0 -695 0 -695 -160 0 -160 0 -2 408 -3 407
-299 -408 -298 -408 -126 3 -125 3 -296 405 -296 405 -3 -408 -2 -407 -160 0
-160 0 0 695 0 695 143 0 142 0 374 -511z m3318 502 c128 -19 222 -85 272
-190 l26 -56 3 -422 c3 -470 1 -494 -62 -576 -36 -47 -109 -100 -164 -119 -53
-18 -1373 -25 -1452 -7 -120 25 -210 99 -249 202 -20 55 -21 74 -21 472 -1
276 3 429 10 458 34 126 141 216 281 237 76 11 1281 12 1356 1z m1030 -205
c147 -117 421 -336 608 -485 l340 -271 3 485 2 485 163 -2 162 -3 3 -692 2
-693 -152 0 -153 1 -520 415 c-607 486 -681 544 -689 544 -3 0 -6 -216 -6
-480 l0 -480 -160 0 -160 0 0 695 0 695 145 0 144 0 268 -214z"/>
<path d="M12158 5613 c-16 -19 -213 -365 -263 -463 -40 -77 -46 -191 -15 -272
57 -152 230 -244 382 -203 101 26 189 100 229 191 27 60 34 157 16 216 -15 49
-268 507 -294 533 -19 20 -36 19 -55 -2z"/>
<path d="M4581 2736 c11 -11 131 -78 274 -154 804 -425 1754 -729 2894 -926
113 -20 206 -34 208 -32 3 2 -26 14 -64 26 -357 118 -843 347 -1165 551 -198
125 -450 316 -614 465 l-82 74 -728 0 c-400 0 -725 -2 -723 -4z"/>
<path d="M6320 2718 c707 -599 1682 -1016 2740 -1173 240 -36 242 -35 140 26
-363 219 -712 600 -959 1052 l-65 117 -940 0 -941 -1 25 -21z"/>
<path d="M8380 2734 c0 -12 64 -119 145 -244 257 -394 569 -688 901 -850 196
-95 367 -143 577 -161 631 -52 1232 291 1686 961 72 106 181 284 181 295 0 3
-785 5 -1745 5 -960 0 -1745 -3 -1745 -6z"/>
<path d="M12014 2633 c-77 -140 -212 -344 -315 -474 -163 -208 -437 -455 -644
-582 -33 -20 -52 -37 -43 -37 39 0 382 62 526 96 683 158 1303 416 1826 762
138 91 332 234 406 301 l45 40 -871 1 -872 0 -58 -107z"/>
<path d="M14008 2673 c-191 -176 -555 -440 -793 -575 -265 -151 -502 -263
-780 -369 -99 -38 -172 -69 -163 -69 27 0 380 66 534 100 829 184 1535 423
2159 730 164 81 391 203 440 236 16 12 -83 14 -653 14 l-672 0 -72 -67z"/>
</g>
</svg>
